<?xml version="1.0" encoding="UTF-8" standalone="no"?>
<!-- Created with Inkscape (http://www.inkscape.org/) -->

<svg
   width="45mm"
   height="45.000004mm"
   viewBox="0 0 45 45.000004"
   version="1.1"
   id="svg1559"
   inkscape:version="1.2.1 (9c6d41e410, 2022-07-14)"
   sodipodi:docname="flatmen_base.svg"
   xmlns:inkscape="http://www.inkscape.org/namespaces/inkscape"
   xmlns:sodipodi="http://sodipodi.sourceforge.net/DTD/sodipodi-0.dtd"
   xmlns="http://www.w3.org/2000/svg"
   xmlns:svg="http://www.w3.org/2000/svg"
   xmlns:rdf="http://www.w3.org/1999/02/22-rdf-syntax-ns#"
   xmlns:cc="http://creativecommons.org/ns#"
   xmlns:dc="http://purl.org/dc/elements/1.1/">
  <defs
     id="defs1553" />
  <sodipodi:namedview
     id="base"
     pagecolor="#ffffff"
     bordercolor="#666666"
     borderopacity="1.0"
     inkscape:pageopacity="0.0"
     inkscape:pageshadow="2"
     inkscape:zoom="1.4"
     inkscape:cx="83.214285"
     inkscape:cy="220.71428"
     inkscape:document-units="mm"
     inkscape:current-layer="layer1"
     showgrid="true"
     inkscape:window-width="2560"
     inkscape:window-height="1027"
     inkscape:window-x="1912"
     inkscape:window-y="-8"
     inkscape:window-maximized="1"
     inkscape:showpageshadow="2"
     inkscape:pagecheckerboard="0"
     inkscape:deskcolor="#d1d1d1"
     showguides="false">
    <inkscape:grid
       type="xygrid"
       id="grid237"
       originx="-28.664866"
       originy="40.385181" />
  </sodipodi:namedview>
  <metadata
     id="metadata1556">
    <rdf:RDF>
      <cc:Work
         rdf:about="">
        <dc:format>image/svg+xml</dc:format>
        <dc:type
           rdf:resource="http://purl.org/dc/dcmitype/StillImage" />
        <dc:title />
      </cc:Work>
    </rdf:RDF>
  </metadata>
  <g
     inkscape:label="body"
     inkscape:groupmode="layer"
     id="layer1"
     transform="translate(-154.35148,-34.237307)"
     style="display:inline">
    <path
       style="display:inline;fill:none;fill-rule:evenodd;stroke:#000000;stroke-width:0.12411;stroke-linecap:butt;stroke-linejoin:miter;stroke-miterlimit:4;stroke-dasharray:none;stroke-opacity:1"
       d="m 170.65086,75.894454 c -6.63246,7.53905 -11.42722,17.37655 -16.19314,24.911326 -0.34761,1.59213 1.44216,4.03848 3.1049,3.31164 3.15114,-1.19535 8.34771,-5.655536 11.93014,-8.371926 0.18088,0.21622 0.69365,0.91889 0.95735,1.77386 0.56913,1.84545 -1.44485,14.864816 0.92284,40.403506 l 6.98776,0.0287 c 1.06729,-5.51273 7.17623,-18.41955 7.31211,-18.57597 0.13588,-0.1563 0.10266,-0.27469 1.17865,-0.27422 1.07604,4.8e-4 1.04276,0.11792 1.17861,0.27422 0.13589,0.15626 6.24484,13.06324 7.31216,18.57597 l 6.98776,-0.0287 c 2.36768,-25.53869 0.35389,-38.558056 0.9228,-40.403506 0.26391,-0.85497 0.77654,-1.55766 0.95735,-1.77386 3.58245,2.71639 8.77901,7.176576 11.93017,8.371926 1.66271,0.72684 3.45248,-1.71951 3.10487,-3.31164 -4.76595,-7.534776 -9.56065,-17.372276 -16.19316,-24.911326 v 3.9e-4 c -2.1196,-2.40954 -16.20056,-2.81893 -16.20056,-2.81893 0,0 -14.08096,0.40939 -16.20061,2.81893 z"
       id="path830"
       inkscape:connector-curvature="0"
       sodipodi:nodetypes="cccccccccsccccccccccc" />
  </g>
  <g
     inkscape:groupmode="layer"
     id="layer2"
     inkscape:label="head"
     style="display:inline"
     transform="translate(-28.664862,11.437566)">
    <path
       id="path827"
       style="display:inline;opacity:1;fill:none;stroke:#1b1c1b;stroke-width:0.126023;stroke-linecap:square"
       d="M 73.601851,69.838956 A 22.436988,22.436989 0 0 1 51.164862,92.275945 22.436988,22.436989 0 0 1 28.727873,69.838956 22.436988,22.436989 0 0 1 51.164862,47.401967 22.436988,22.436989 0 0 1 73.601851,69.838956 Z" />
  </g>
</svg>
